<svg width="22" height="22" viewBox="0 0 22 22" fill="none" xmlns="http://www.w3.org/2000/svg">
<circle cx="11" cy="11" r="11" fill="black" fill-opacity="0.5"/>
<path d="M9.2566 8.76471V8.21925C9.40755 8.15508 9.60881 8.09091 9.86038 8.02674C10.1119 7.95187 10.3786 7.8877 10.6604 7.83422C10.9421 7.78075 11.2189 7.73797 11.4906 7.70588C11.7723 7.6631 12.0189 7.64171 12.2302 7.64171L12.5019 7.83422L11.1434 14.7487H12.2V15.2941C12.0692 15.3904 11.9132 15.4813 11.7321 15.5668C11.561 15.6524 11.3748 15.7273 11.1736 15.7914C10.9824 15.8556 10.7862 15.9037 10.5849 15.9358C10.3836 15.9786 10.1925 16 10.0113 16C9.62893 16 9.36226 15.9251 9.21132 15.7754C9.07044 15.615 9 15.4439 9 15.262C9 15.0481 9.01509 14.8396 9.04528 14.6364C9.07547 14.4332 9.11572 14.2086 9.16604 13.9626L10.1925 8.9893L9.2566 8.76471ZM10.5245 5.15508C10.5245 4.79144 10.6403 4.50802 10.8717 4.30481C11.1031 4.1016 11.395 4 11.7472 4C12.1296 4 12.4314 4.1016 12.6528 4.30481C12.8843 4.50802 13 4.79144 13 5.15508C13 5.49733 12.8843 5.77005 12.6528 5.97326C12.4314 6.17647 12.1296 6.27807 11.7472 6.27807C11.395 6.27807 11.1031 6.17647 10.8717 5.97326C10.6403 5.77005 10.5245 5.49733 10.5245 5.15508Z" fill="#DCDCDC"/>
</svg>
